<svg width="54" height="57" viewBox="0 0 54 57" fill="none" xmlns="http://www.w3.org/2000/svg">
<path d="M28.6581 2.34928L25.1303 3.69859L23.0841 4.79088L21.8141 1L19.3446 2.02802L17.863 1.83527L16.2402 4.40537L9.60787 4.34111L7.27952 2.99181L6.15061 3.8271L4.38671 4.53388L3.68114 7.55373L5.65672 11.2161L7.77341 18.3481L4.52782 19.3762L3.7517 20.597L4.38671 22.3318L3.82225 26.2512H2.48169L2.05834 28.8213L2.90502 33.1262L1 37.0456L3.54003 39.4872L6.22117 40.0654L9.8901 43.792L10.1018 47.3259L9.32565 48.4182L8.62008 55.743L10.2429 56L18.7802 52.7231L24.7775 50.153L35.0081 48.611L40.5115 48.4825L46.5088 50.2173L50.46 50.153L50.8128 46.6192L47.1438 38.9731L49.4016 28.9498L53 21.4965L50.7422 8.83878L44.886 6.52569L40.8643 6.9112L37.8304 9.09578L34.0204 7.23247L32.5387 4.27685L28.6581 2.34928Z" fill="url(#paint0_linear_1006_7921)" stroke="#FCFAF9" stroke-linejoin="round"/>
<defs>
<linearGradient id="paint0_linear_1006_7921" x1="1" y1="28.1127" x2="52.9999" y2="26.9463" gradientUnits="userSpaceOnUse">
<stop stop-color="#F77F00"/>
<stop offset="0.34375" stop-color="#F77F00"/>
<stop offset="0.34385" stop-color="white"/>
<stop offset="0.661458" stop-color="white"/>
<stop offset="0.661558" stop-color="#009E60"/>
<stop offset="1" stop-color="#009E60"/>
</linearGradient>
</defs>
</svg>
